<mxfile host="app.diagrams.net" agent="Mozilla/5.0 (X11; Linux x86_64) AppleWebKit/537.36 (KHTML, like Gecko) Chrome/124.0.0.0 Safari/537.36" version="24.8.3">
  <diagram name="Halaman-1" id="m6oMOx5gIjL3DMnfu-z_">
    <mxGraphModel dx="879" dy="507" grid="1" gridSize="10" guides="1" tooltips="1" connect="1" arrows="1" fold="1" page="1" pageScale="1" pageWidth="827" pageHeight="1169" math="0" shadow="0">
      <root>
        <mxCell id="0" />
        <mxCell id="1" parent="0" />
        <mxCell id="7Kil8FCmEpAgm0nIj7vy-9" value="" style="verticalLabelPosition=bottom;verticalAlign=top;html=1;shape=mxgraph.basic.rect;fillColor2=none;strokeWidth=1;size=20;indent=5;" vertex="1" parent="1">
          <mxGeometry x="280" y="50" width="240" height="440" as="geometry" />
        </mxCell>
        <mxCell id="7Kil8FCmEpAgm0nIj7vy-14" style="edgeStyle=orthogonalEdgeStyle;rounded=0;orthogonalLoop=1;jettySize=auto;html=1;" edge="1" parent="1" source="7Kil8FCmEpAgm0nIj7vy-1" target="7Kil8FCmEpAgm0nIj7vy-10">
          <mxGeometry relative="1" as="geometry" />
        </mxCell>
        <mxCell id="7Kil8FCmEpAgm0nIj7vy-1" value="Pasien" style="shape=umlActor;verticalLabelPosition=bottom;verticalAlign=top;html=1;" vertex="1" parent="1">
          <mxGeometry x="190" y="100" width="30" height="60" as="geometry" />
        </mxCell>
        <mxCell id="7Kil8FCmEpAgm0nIj7vy-17" style="edgeStyle=orthogonalEdgeStyle;rounded=0;orthogonalLoop=1;jettySize=auto;html=1;" edge="1" parent="1" source="7Kil8FCmEpAgm0nIj7vy-2" target="7Kil8FCmEpAgm0nIj7vy-13">
          <mxGeometry relative="1" as="geometry" />
        </mxCell>
        <mxCell id="7Kil8FCmEpAgm0nIj7vy-2" value="Administrasi" style="shape=umlActor;verticalLabelPosition=bottom;verticalAlign=top;html=1;" vertex="1" parent="1">
          <mxGeometry x="180" y="360" width="30" height="60" as="geometry" />
        </mxCell>
        <mxCell id="7Kil8FCmEpAgm0nIj7vy-3" value="Dokter" style="shape=umlActor;verticalLabelPosition=bottom;verticalAlign=top;html=1;" vertex="1" parent="1">
          <mxGeometry x="600" y="200" width="30" height="60" as="geometry" />
        </mxCell>
        <mxCell id="7Kil8FCmEpAgm0nIj7vy-10" value="Registrasi Pasien" style="ellipse;whiteSpace=wrap;html=1;" vertex="1" parent="1">
          <mxGeometry x="330" y="80" width="140" height="70" as="geometry" />
        </mxCell>
        <mxCell id="7Kil8FCmEpAgm0nIj7vy-11" value="Pencatatan Diagnosa" style="ellipse;whiteSpace=wrap;html=1;" vertex="1" parent="1">
          <mxGeometry x="330" y="180" width="140" height="70" as="geometry" />
        </mxCell>
        <mxCell id="7Kil8FCmEpAgm0nIj7vy-12" value="Pemberian Resep" style="ellipse;whiteSpace=wrap;html=1;" vertex="1" parent="1">
          <mxGeometry x="330" y="280" width="140" height="70" as="geometry" />
        </mxCell>
        <mxCell id="7Kil8FCmEpAgm0nIj7vy-13" value="Penjadwalan Kunjungan" style="ellipse;whiteSpace=wrap;html=1;" vertex="1" parent="1">
          <mxGeometry x="340" y="380" width="140" height="70" as="geometry" />
        </mxCell>
        <mxCell id="7Kil8FCmEpAgm0nIj7vy-15" style="edgeStyle=orthogonalEdgeStyle;rounded=0;orthogonalLoop=1;jettySize=auto;html=1;entryX=0.979;entryY=0.414;entryDx=0;entryDy=0;entryPerimeter=0;" edge="1" parent="1" source="7Kil8FCmEpAgm0nIj7vy-3" target="7Kil8FCmEpAgm0nIj7vy-11">
          <mxGeometry relative="1" as="geometry" />
        </mxCell>
        <mxCell id="7Kil8FCmEpAgm0nIj7vy-16" style="edgeStyle=orthogonalEdgeStyle;rounded=0;orthogonalLoop=1;jettySize=auto;html=1;entryX=0.792;entryY=0.614;entryDx=0;entryDy=0;entryPerimeter=0;" edge="1" parent="1" source="7Kil8FCmEpAgm0nIj7vy-3" target="7Kil8FCmEpAgm0nIj7vy-9">
          <mxGeometry relative="1" as="geometry" />
        </mxCell>
        <mxCell id="7Kil8FCmEpAgm0nIj7vy-18" style="edgeStyle=orthogonalEdgeStyle;rounded=0;orthogonalLoop=1;jettySize=auto;html=1;entryX=0.292;entryY=0.091;entryDx=0;entryDy=0;entryPerimeter=0;" edge="1" parent="1" source="7Kil8FCmEpAgm0nIj7vy-2" target="7Kil8FCmEpAgm0nIj7vy-9">
          <mxGeometry relative="1" as="geometry" />
        </mxCell>
      </root>
    </mxGraphModel>
  </diagram>
</mxfile>
